<svg xmlns="http://www.w3.org/2000/svg" version="1.1" xmlns:xlink="http://www.w3.org/1999/xlink" width="2000" height="1500" viewBox="0 0 2000 1500"><rect width="2000" height="1500" x="0" y="0" id="background" stroke="transparent" fill="#ffffff"></rect><svg xml:space="preserve" width="1500" height="1125" data-version="2" data-id="lg_GHRT0c4FBImT0RIVPa" viewBox="0 0 675 374" x="250" y="187.5"><rect width="100%" height="100%" fill="transparent"></rect><path d="M6.465 3.45h152.19v52.3h-94.66v101.98h74.26v52.3h-74.26v159.52H6.465Z" paint-order="stroke"></path><rect width="152.19" height="366.1" x="-76.09" y="-183.05" fill="none" rx="0" ry="0" transform="translate(83.06 187)"></rect><path d="M237.105 182.31 173.825 3.45h60.66l38.71 118.19h1.04l39.75-118.19h54.39l-63.28 178.86 66.42 187.24h-60.67l-41.84-127.62h-1.04l-42.89 127.62h-54.39Z" paint-order="stroke"></path><rect width="200.83" height="366.1" x="-100.42" y="-183.05" fill="none" rx="0" ry="0" transform="translate(271.6 187)"></rect><path d="M398.715 3.45h85.24q44.46 0 64.86 20.65 20.39 20.66 20.39 63.55v22.49q0 57-37.65 72.17v1.05q20.92 6.27 29.55 25.62 8.63 19.36 8.63 51.78v64.33q0 15.69 1.04 25.37 1.05 9.67 5.23 19.09h-58.57q-3.14-8.9-4.19-16.74-1.04-7.85-1.04-28.24v-66.95q0-25.1-8.11-35.04-8.11-9.93-27.98-9.93h-19.87v156.9h-57.53Zm78.45 156.9q17.25 0 25.88-8.9 8.63-8.89 8.63-29.81V93.4q0-19.87-7.06-28.76t-22.22-8.89h-26.15v104.6Z" paint-order="stroke"></path><rect width="177.29" height="366.1" x="-88.64" y="-183.05" fill="none" rx="0" ry="0" transform="translate(487.86 187)"></rect><path d="M612.095 314.11h55.44v55.44h-55.44Z" paint-order="stroke"></path><rect width="55.44" height="55.44" x="-27.72" y="-27.72" fill="none" rx="0" ry="0" transform="translate(640.32 342.33)"></rect></svg></svg>